HIERARCHY
ROOT Pelvis
{
	OFFSET 0.000000 0.000000 0.000000
	CHANNELS 6 Xposition Yposition Zposition Xrotation Yrotation Zrotation
	JOINT LeftUpLeg_virtual
	{
		OFFSET 0.000000 0.000000 0.000000
		CHANNELS 3 Xrotation Yrotation Zrotation
		JOINT LeftUpLeg
		{
			OFFSET 18.735201 -5.666702 -4.541200
			CHANNELS 3 Xrotation Yrotation Zrotation
			JOINT LeftLeg
			{
				OFFSET -0.021200 -31.938179 0.493100
				CHANNELS 3 Xrotation Yrotation Zrotation
				JOINT LeftFoot
				{
					OFFSET 0.021200 -31.938179 -4.336299
					CHANNELS 3 Xrotation Yrotation Zrotation
					JOINT LeftToeBase
					{
						OFFSET 0.943001 -26.722000 15.023500
						CHANNELS 3 Xrotation Yrotation Zrotation
						End Site
						{
							OFFSET 0 0 0
						}
					}
				}
			}
		}
	}
	JOINT RightUpLeg_virtual
	{
		OFFSET 0.000000 0.000000 0.000000
		CHANNELS 3 Xrotation Yrotation Zrotation
		JOINT RightUpLeg
		{
			OFFSET -18.735201 -5.666702 -4.541200
			CHANNELS 3 Xrotation Yrotation Zrotation
			JOINT RightLeg
			{
				OFFSET 0.018946 -31.938133 0.493100
				CHANNELS 3 Xrotation Yrotation Zrotation
				JOINT RightFoot
				{
					OFFSET -0.018946 -31.938126 -4.336299
					CHANNELS 3 Xrotation Yrotation Zrotation
					JOINT RightToeBase
					{
						OFFSET -0.943001 -26.722004 15.023500
						CHANNELS 3 Xrotation Yrotation Zrotation
						End Site
						{
							OFFSET 0 0 0
						}
					}
				}
			}
		}
	}
	JOINT Hips_virtual
	{
		OFFSET 0.000000 0.000000 0.000000
		CHANNELS 3 Xrotation Yrotation Zrotation
		JOINT Hips
		{
			OFFSET -0.000000 -0.000000 -0.000000
			CHANNELS 3 Xrotation Yrotation Zrotation
			JOINT Spine
			{
				OFFSET 0.000000 10.199997 -0.299500
				CHANNELS 3 Xrotation Yrotation Zrotation
				JOINT Spine1
				{
					OFFSET 0.000000 11.900002 -1.516600
					CHANNELS 3 Xrotation Yrotation Zrotation
					JOINT Spine2
					{
						OFFSET 0.000000 13.600006 -2.842500
						CHANNELS 3 Xrotation Yrotation Zrotation
						JOINT Neck_virtual
						{
							OFFSET 0.000000 0.000000 0.000000
							CHANNELS 3 Xrotation Yrotation Zrotation
							JOINT Neck
							{
								OFFSET 0.000000 9.624100 -2.890100
								CHANNELS 3 Xrotation Yrotation Zrotation
								JOINT Head
								{
									OFFSET 0.000000 14.068802 -1.351900
									CHANNELS 3 Xrotation Yrotation Zrotation
									End Site
									{
										OFFSET 0 0 0
									}
								}
							}
						}
						JOINT LeftShoulder_virtual
						{
							OFFSET 0.000000 0.000000 0.000000
							CHANNELS 3 Xrotation Yrotation Zrotation
							JOINT LeftShoulder
							{
								OFFSET 15.263000 10.923401 -0.547700
								CHANNELS 3 Xrotation Yrotation Zrotation
								JOINT LeftArm
								{
									OFFSET 25.438599 -2.830597 -13.032500
									CHANNELS 3 Xrotation Yrotation Zrotation
									JOINT LeftForeArm
									{
										OFFSET 29.960503 0.000000 0.000000
										CHANNELS 3 Xrotation Yrotation Zrotation
										JOINT LeftHand
										{
											OFFSET 27.849251 0.000000 0.000000
											CHANNELS 3 Xrotation Yrotation Zrotation
											End Site
											{
												OFFSET 0 0 0
											}
										}
									}
								}
							}
						}
						JOINT RightShoulder_virtual
						{
							OFFSET 0.000000 0.000000 0.000000
							CHANNELS 3 Xrotation Yrotation Zrotation
							JOINT RightShoulder
							{
								OFFSET -15.263000 10.923401 -0.547700
								CHANNELS 3 Xrotation Yrotation Zrotation
								JOINT RightArm
								{
									OFFSET -25.438599 -2.830597 -13.032500
									CHANNELS 3 Xrotation Yrotation Zrotation
									JOINT RightForeArm
									{
										OFFSET -29.960503 0.000000 0.000000
										CHANNELS 3 Xrotation Yrotation Zrotation
										JOINT RightHand
										{
											OFFSET -27.849251 0.000000 0.000000
											CHANNELS 3 Xrotation Yrotation Zrotation
											End Site
											{
												OFFSET 0 0 0
											}
										}
									}
								}
							}
						}
					}
				}
			}
		}
	}
}
MOTION
Frames: 9
Frame Time: 0.03333333
-1.483909 93.179695 6.902210 0.000000 0.000000 0.000000 -6.993969 8.296072 -0.226715 -21.186731 13.562982 14.787723 29.970911 0.818232 5.449011 -4.581740 -12.735591 -13.690399 0.000000 0.000000 0.000000 -6.993969 8.296072 -0.226715 7.014897 -9.606260 6.409586 18.630012 -9.751412 -6.666646 -17.796961 -17.440138 4.476768 0.000000 0.000000 0.000000 -6.993969 8.296072 -0.226715 0.000000 0.000000 0.000000 2.791013 1.693669 2.378481 2.151564 0.592694 2.718579 0.000000 0.000000 0.000000 1.782908 0.592695 2.685777 5.002526 -1.061379 -0.478398 0.000000 0.000000 0.000000 1.782908 0.592695 2.685777 0.998396 -16.605274 -12.654426 1.183476 -2.628895 -70.794084 0.000002 -0.000003 -0.000010 0.000000 0.000000 0.000000 1.782908 0.592695 2.685777 0.926026 8.750960 17.196033 27.179235 9.351831 58.116577 -0.000000 4.186833 -0.000021 0.000000 0.000000 0.000000 
-1.424684 93.289635 6.909481 0.000000 0.000000 0.000000 -6.527454 7.410248 -0.349754 -20.904682 13.687585 14.714452 29.425339 0.550778 5.262617 -4.541022 -11.616656 -13.597488 0.000000 0.000000 0.000000 -6.527454 7.410248 -0.349754 6.448818 -9.661493 6.099246 18.268615 -9.768504 -6.741821 -17.302128 -16.467006 4.728461 0.000000 0.000000 0.000000 -6.527454 7.410248 -0.349754 0.000001 0.000000 0.000000 2.729955 1.603070 2.350307 2.229757 0.462799 2.709335 0.000000 0.000000 0.000000 1.815967 0.462785 2.663380 4.829822 -0.940468 -0.444808 0.000000 0.000000 0.000000 1.815967 0.462785 2.663380 0.980235 -16.729756 -12.817469 1.380168 -1.285204 -71.138701 0.000001 -0.000000 -0.000002 0.000000 0.000000 0.000000 1.815967 0.462785 2.663380 0.966137 8.437345 16.887346 28.204750 8.686313 58.059757 0.000000 3.688157 -0.000009 0.000000 0.000000 0.000000 
-1.397336 93.400230 6.877874 0.000000 0.000000 0.000000 -6.052454 6.301748 -0.533038 -20.618630 13.799766 14.682948 28.937384 0.202574 5.118390 -4.534444 -10.210523 -13.494681 0.000000 0.000000 0.000000 -6.052454 6.301748 -0.533038 5.750860 -9.700218 5.712725 17.993252 -9.786346 -6.627586 -16.799257 -15.249584 4.888053 0.000000 0.000000 0.000000 -6.052454 6.301748 -0.533038 0.000000 0.000000 0.000000 2.684839 1.557384 2.332864 2.323626 0.402819 2.709165 0.000000 0.000000 0.000000 1.868223 0.402405 2.651737 4.631766 -0.821766 -0.396594 0.000000 0.000000 0.000000 1.868223 0.402405 2.651737 0.973021 -16.881875 -12.893317 1.489844 -0.193283 -71.539094 -0.000001 -0.000000 0.000014 0.000000 0.000000 0.000000 1.868223 0.402405 2.651737 0.974404 8.574765 16.795621 27.644525 6.868329 58.342130 0.000002 2.537503 0.000004 0.000000 0.000000 0.000000 
-1.401939 93.498352 6.812853 0.000000 0.000000 0.000000 -5.590034 5.065863 -0.779199 -20.395146 13.897665 14.719104 28.588057 -0.178464 5.031843 -4.612314 -8.672767 -13.381324 0.000000 0.000000 0.000000 -5.590034 5.065863 -0.779199 4.995611 -9.709685 5.373681 17.743028 -9.811901 -6.448521 -16.272847 -13.920744 4.985564 0.000000 0.000000 0.000000 -5.590034 5.065863 -0.779199 0.000000 0.000000 0.000000 2.653252 1.536694 2.333999 2.427194 0.378845 2.725930 0.000000 0.000000 0.000000 1.933557 0.377381 2.658369 4.424563 -0.706809 -0.338906 0.000000 0.000000 0.000000 1.933557 0.377381 2.658369 0.979849 -17.054149 -12.860018 1.661559 0.422353 -71.953844 0.000001 -0.000003 -0.000005 0.000000 0.000000 0.000000 1.933557 0.377381 2.658369 0.957081 8.904104 16.894352 26.167812 4.868369 58.493856 -0.000005 1.292156 -0.000020 0.000000 0.000000 0.000000 
-1.429781 93.581558 6.721104 0.000000 0.000000 0.000000 -5.153765 3.782802 -1.072905 -20.249446 13.999553 14.814856 28.396552 -0.546083 4.987511 -4.816874 -7.134385 -13.203066 0.000000 0.000000 0.000000 -5.153765 3.782802 -1.072905 4.238366 -9.695124 5.085820 17.496967 -9.843546 -6.184055 -15.738895 -12.543829 5.004128 0.000000 0.000000 0.000000 -5.153765 3.782802 -1.072905 0.000000 0.000000 0.000000 2.627823 1.520376 2.345275 2.527650 0.357655 2.755404 0.000000 0.000000 0.000000 1.999163 0.354537 2.678583 4.231557 -0.596351 -0.271178 0.000000 0.000000 0.000000 1.999163 0.354537 2.678583 0.994347 -17.190635 -12.748662 1.966113 0.450954 -72.328807 0.000001 -0.000007 -0.000020 0.000000 0.000000 0.000000 1.999163 0.354537 2.678583 0.931289 9.222946 17.053492 24.477322 3.700237 58.305739 0.000002 0.487913 -0.000010 0.000000 0.000000 0.000000 
-1.464778 93.659958 6.608324 0.000000 0.000000 0.000000 -4.742961 2.519540 -1.370374 -20.140348 14.110746 14.943822 28.237148 -0.902089 4.938198 -5.025491 -5.655276 -12.990401 0.000000 0.000000 0.000000 -4.742961 2.519540 -1.370374 3.512102 -9.681173 4.821409 17.223497 -9.877044 -5.856358 -15.193240 -11.165489 4.961429 0.000000 0.000000 0.000000 -4.742961 2.519540 -1.370374 0.000000 0.000000 0.000000 2.602736 1.496987 2.352412 2.616108 0.322735 2.777670 0.000000 0.000000 0.000000 2.056161 0.317873 2.692146 4.067495 -0.491770 -0.191973 0.000000 0.000000 0.000000 2.056161 0.317873 2.692146 1.012981 -17.265349 -12.614401 2.352359 -0.034967 -72.612199 -0.000004 0.000007 0.000040 0.000000 0.000000 0.000000 2.056161 0.317873 2.692146 0.912525 9.450925 17.165360 22.950238 3.774230 57.874542 0.000003 0.370979 0.000029 0.000000 0.000000 0.000000 
-1.490185 93.746025 6.479218 0.000000 0.000000 0.000000 -4.363472 1.305790 -1.623124 -19.989389 14.235046 15.049434 27.981432 -1.239579 4.847760 -5.142506 -4.247784 -12.759617 0.000000 0.000000 0.000000 -4.363472 1.305790 -1.623124 2.828675 -9.691092 4.537095 16.916703 -9.906106 -5.506995 -14.631498 -9.809842 4.893862 0.000000 0.000000 0.000000 -4.363472 1.305790 -1.623124 0.000000 0.000000 0.000000 2.577951 1.464755 2.349351 2.693039 0.273323 2.772668 0.000000 0.000000 0.000000 2.105015 0.267248 2.678888 3.933556 -0.394775 -0.106116 0.000000 0.000000 0.000000 2.105015 0.267248 2.678888 1.032583 -17.323983 -12.492427 2.698293 -0.853007 -72.778794 -0.000004 -0.000003 0.000033 0.000000 0.000000 0.000000 2.105015 0.267248 2.678888 0.905935 9.624706 17.187126 21.586376 4.919235 57.415164 -0.000002 0.859990 -0.000011 0.000000 0.000000 0.000000 
-1.498053 93.843475 6.335096 0.000000 0.000000 0.000000 -4.021345 0.167990 -1.813375 -19.771277 14.368949 15.100519 27.583504 -1.560393 4.718404 -5.128087 -2.925143 -12.531147 0.000000 0.000000 0.000000 -4.021345 0.167990 -1.813375 2.196914 -9.719184 4.230095 16.577668 -9.928467 -5.172633 -14.054240 -8.524044 4.822418 0.000000 0.000000 0.000000 -4.021345 0.167990 -1.813375 0.000000 0.000000 0.000000 2.556494 1.426309 2.327292 2.763548 0.214384 2.737833 0.000000 0.000000 0.000000 2.150770 0.207883 2.636245 3.822954 -0.306464 -0.024617 0.000000 0.000000 0.000000 2.150770 0.207883 2.636245 1.047640 -17.445049 -12.396100 2.896036 -1.841279 -72.829276 0.000001 -0.000000 -0.000002 0.000000 0.000000 0.000000 2.150770 0.207883 2.636245 0.909167 9.836902 17.119480 20.234674 6.778528 57.118164 0.000004 1.716665 -0.000001 0.000000 0.000000 0.000000 
-1.489987 93.947861 6.175976 0.000000 0.000000 0.000000 -3.708251 -0.863268 -1.958914 -19.529299 14.501518 15.097445 27.080985 -1.866482 4.582321 -5.003142 -1.706066 -12.297643 0.000000 0.000000 0.000000 -3.708251 -0.863268 -1.958914 1.633936 -9.732826 3.947692 16.173620 -9.946965 -4.879485 -13.450293 -7.372954 4.746491 0.000000 0.000000 0.000000 -3.708251 -0.863268 -1.958914 0.000000 0.000000 0.000000 2.540609 1.384963 2.294307 2.831158 0.150767 2.687038 0.000000 0.000000 0.000000 2.196842 0.144408 2.578157 3.726827 -0.227245 0.042907 0.000000 0.000000 0.000000 2.196842 0.144408 2.578157 1.059928 -17.650527 -12.335941 2.889740 -2.937140 -72.771697 0.000001 -0.000003 -0.000001 0.000000 0.000000 0.000000 2.196842 0.144408 2.578157 0.917829 10.162416 16.988048 18.794343 9.081374 57.070940 0.000003 2.731638 -0.000011 0.000000 0.000000 0.000000 
